<?xml version="1.0" encoding="UTF-8"?>
<svg id="Layer_1" data-name="Layer 1" xmlns="http://www.w3.org/2000/svg" viewBox="0 0 38.88 38.88">
  <defs>
    <style>
      .cls-1 {
        fill: none;
        stroke: #000;
        stroke-linecap: round;
        stroke-linejoin: round;
        stroke-width: 3px;
      }
    </style>
  </defs>
  <path class="cls-1" d="M13.76,27.07l-2.28-7.22-7.22-2.28c-1.38-.43-1.38-2.38,0-2.81l7.22-2.28,2.28-7.22c.43-1.38,2.38-1.38,2.81,0l2.28,7.22,7.22,2.28c1.38.43,1.38,2.38,0,2.81l-7.22,2.28-2.28,7.22c-.43,1.38-2.38,1.38-2.81,0Z"/>
  <path class="cls-1" d="M27.63,34.35l-1.88-3.9-3.9-1.88c-.39-.19-.39-.75,0-.94l3.9-1.88,1.88-3.9c.19-.39.75-.39.94,0l1.88,3.9,3.9,1.88c.39.19.39.75,0,.94l-3.9,1.88-1.88,3.9c-.19.39-.75.39-.94,0Z"/>
</svg>