<?xml version="1.0" encoding="UTF-8"?>
<svg id="Layer_1" data-name="Layer 1" xmlns="http://www.w3.org/2000/svg" viewBox="0 0 38.88 38.88">
  <defs>
    <style>
      .cls-1, .cls-2 {
        stroke: #000;
        stroke-linecap: round;
        stroke-linejoin: round;
        stroke-width: 3px;
      }

      .cls-2 {
        fill: none;
      }
    </style>
  </defs>
  <path class="cls-2" d="M29.89,27.86v4.25c0,1.69-1.37,3.06-3.06,3.06H7.04c-1.69,0-3.06-1.37-3.06-3.06V7.32c0-1.69,1.37-3.06,3.06-3.06h24.79c1.69,0,3.06,1.37,3.06,3.06v15.58"/>
  <path class="cls-2" d="M29.89,27.86h-4.43c-1.13,0-2.04-.78-2.04-1.73v-1.5c0-.96.91-1.73,2.04-1.73h9.43"/>
  <rect class="cls-2" x="25.65" y="12.94" width="5.38" height="5.38" rx="1.73" ry="1.73"/>
  <rect class="cls-1" x="17.23" y="7.56" width="5.38" height="5.38" rx="1.73" ry="1.73"/>
  <rect class="cls-1" x="8" y="10.25" width="5.38" height="5.38" rx="1.73" ry="1.73"/>
  <rect class="cls-1" x="7.7" y="19.71" width="5.38" height="5.38" rx="1.73" ry="1.73"/>
  <rect class="cls-1" x="15.02" y="26.32" width="5.38" height="5.38" rx="1.73" ry="1.73"/>
</svg>