<?xml version="1.0" encoding="UTF-8"?>
<svg id="Layer_1" data-name="Layer 1" xmlns="http://www.w3.org/2000/svg" viewBox="0 0 49 49">
  <path d="M49,24.5c0,13.53-10.97,24.5-24.5,24.5C10.97,49,0,38.03,0,24.5,0,10.97,10.97,0,24.5,0c13.53,0,24.5,10.97,24.5,24.5ZM29.67,39.44l9.78-9.78c1.38-1.38,2.14-3.22,2.14-5.17s-.76-3.79-2.14-5.17l-9.78-9.78c-2.85-2.85-7.49-2.85-10.34,0l-9.78,9.78c-1.38,1.38-2.14,3.22-2.14,5.17,0,1.95.76,3.79,2.14,5.17l9.78,9.78c1.42,1.42,3.3,2.14,5.17,2.14s3.74-.71,5.17-2.14ZM27.55,11.68l9.78,9.78c.81.81,1.26,1.9,1.26,3.05s-.45,2.23-1.26,3.05l-9.78,9.78c-1.68,1.68-4.41,1.68-6.09,0l-9.78-9.78c-.81-.81-1.26-1.9-1.26-3.05,0-1.15.45-2.23,1.26-3.05l9.78-9.78c.84-.84,1.94-1.26,3.05-1.26,1.1,0,2.21.42,3.05,1.26Z"/>
</svg>