<?xml version="1.0" encoding="UTF-8"?>
<svg id="Layer_1" data-name="Layer 1" xmlns="http://www.w3.org/2000/svg" viewBox="0 0 38.88 38.88">
  <defs>
    <style>
      .cls-1 {
        stroke-linecap: round;
        stroke-miterlimit: 10;
      }

      .cls-1, .cls-2 {
        fill: none;
        stroke: #000;
        stroke-width: 3px;
      }

      .cls-2 {
        stroke-linejoin: round;
      }
    </style>
  </defs>
  <rect class="cls-2" x="5.27" y="8.17" width="28.34" height="28.34" rx="3.77" ry="3.77"/>
  <path class="cls-1" d="M13.65,4.87v-.45c0-1.22.99-2.21,2.21-2.21h7.16c1.22,0,2.21.99,2.21,2.21v.46"/>
  <line class="cls-1" x1="19.44" y1="22.34" x2="25.61" y2="22.34"/>
  <line class="cls-1" x1="19.44" y1="22.34" x2="12.83" y2="28.95"/>
  <line class="cls-1" x1="19.44" y1="9.97" x2="19.44" y2="11.63"/>
  <line class="cls-1" x1="19.44" y1="33.04" x2="19.44" y2="34.7"/>
  <line class="cls-1" x1="31.8" y1="22.34" x2="30.14" y2="22.34"/>
  <line class="cls-1" x1="8.74" y1="22.34" x2="7.08" y2="22.34"/>
  <line class="cls-1" x1="8.11" y1="11.01" x2="9.29" y2="12.18"/>
  <line class="cls-1" x1="29.59" y1="32.49" x2="30.77" y2="33.66"/>
  <line class="cls-1" x1="8.11" y1="33.66" x2="9.29" y2="32.49"/>
  <line class="cls-1" x1="29.59" y1="12.18" x2="30.77" y2="11.01"/>
</svg>