<?xml version="1.0" encoding="UTF-8"?>
<svg id="Layer_1" data-name="Layer 1" xmlns="http://www.w3.org/2000/svg" viewBox="0 0 38.88 38.88">
  <defs>
    <style>
      .cls-1 {
        fill: none;
        stroke: #000;
        stroke-linecap: round;
        stroke-linejoin: round;
        stroke-width: 3px;
      }
    </style>
  </defs>
  <rect class="cls-1" x="-1.67" y="16.38" width="18" height="6.11" rx="3.06" ry="3.06" transform="translate(26.77 12.11) rotate(90)"/>
  <path class="cls-1" d="M13.03,25.36l6.22,5.56c1.18,1.06,3.05.22,3.05-1.37V9.32c0-1.58-1.87-2.42-3.05-1.37l-6.22,5.56c-3.53,3.16-3.53,8.69,0,11.85Z"/>
  <rect class="cls-1" x="22.44" y="18.1" width="2.68" height="2.68" rx=".84" ry=".84"/>
  <path class="cls-1" d="M30.76,8.34h0c6.13,6.13,6.13,16.07,0,22.2h0"/>
  <path class="cls-1" d="M28.41,15.84h0c1.99,1.99,1.99,5.21,0,7.2h0"/>
</svg>