<?xml version="1.0" encoding="UTF-8"?>
<svg id="Layer_1" data-name="Layer 1" xmlns="http://www.w3.org/2000/svg" viewBox="0 0 217.52 49">
  <defs>
    <style>
      .cls-1 {
        fill: #231f20;
      }
    </style>
  </defs>
  <path d="M49,24.5c0,13.53-10.97,24.5-24.5,24.5C10.97,49,0,38.03,0,24.5,0,10.97,10.97,0,24.5,0c13.53,0,24.5,10.97,24.5,24.5ZM29.67,39.44l9.78-9.78c1.38-1.38,2.14-3.22,2.14-5.17s-.76-3.79-2.14-5.17l-9.78-9.78c-2.85-2.85-7.49-2.85-10.34,0l-9.78,9.78c-1.38,1.38-2.14,3.22-2.14,5.17,0,1.95.76,3.79,2.14,5.17l9.78,9.78c1.42,1.42,3.3,2.14,5.17,2.14s3.74-.71,5.17-2.14ZM27.55,11.68l9.78,9.78c.81.81,1.26,1.9,1.26,3.05s-.45,2.23-1.26,3.05l-9.78,9.78c-1.68,1.68-4.41,1.68-6.09,0l-9.78-9.78c-.81-.81-1.26-1.9-1.26-3.05,0-1.15.45-2.23,1.26-3.05l9.78-9.78c.84-.84,1.94-1.26,3.05-1.26,1.1,0,2.21.42,3.05,1.26Z"/>
  <g>
    <path class="cls-1" d="M59.97,14.28v-2.2h19.37v2.2h-8.5v22.64h-2.38V14.28h-8.5Z"/>
    <path class="cls-1" d="M83.87,36.92c-3.55,0-5.33-1.6-5.33-4.81s1.78-4.81,5.33-4.81h7.06v-2.72c0-1.75-.97-2.62-2.92-2.62h-7.74v-.97l1.26-.84h6.41c3.5,0,5.26,1.59,5.26,4.76v12.02h-9.32ZM80.81,32.48c0,1.77.98,2.66,2.95,2.66h7.16v-6.12h-7.16c-1.97,0-2.95.88-2.95,2.62v.84Z"/>
    <path class="cls-1" d="M95.54,36.08v-.94h8.35c1.92,0,2.88-.86,2.88-2.59s-.77-2.7-2.3-2.92l-4.39-.68c-3.02-.45-4.54-1.89-4.54-4.31,0-3,1.78-4.5,5.33-4.5h6.08l1.22.84v.97h-7.45c-1.94,0-2.92.85-2.92,2.56,0,1.51.8,2.39,2.41,2.62l4.43.68c2.93.43,4.39,1.97,4.39,4.6,0,3-1.78,4.5-5.33,4.5h-6.95l-1.22-.84Z"/>
    <path class="cls-1" d="M111.52,36.92V12.94h2.27v16.39l9.29-9.2h2.2l.25.42-6.73,6.64,7.24,9.3-.25.42h-2.2l-6.3-8.23-3.49,3.37v4.86h-2.27Z"/>
    <path class="cls-1" d="M125.96,26.95v-2.02h4.93v2.02h-4.93Z"/>
    <path class="cls-1" d="M134.11,36.92V12.94h2.27v16.39l9.29-9.2h2.2l.25.42-6.73,6.64,7.24,9.3-.25.42h-2.2l-6.3-8.23-3.49,3.37v4.86h-2.27Z"/>
    <path class="cls-1" d="M150.63,32.16v-12.02h2.27v12.34c0,1.77.98,2.66,2.95,2.66h7.74v-15h2.27v16.78h-9.94c-3.53,0-5.29-1.59-5.29-4.76Z"/>
    <path class="cls-1" d="M169.1,36.92v-16.78h9.97c3.5,0,5.26,1.59,5.26,4.76v12.02h-2.27v-12.34c0-1.75-.97-2.62-2.92-2.62h-7.78v14.97h-2.27Z"/>
    <path class="cls-1" d="M192.03,36.34l8.39-24.26h4.1l8.35,24.26-.36.58h-1.98l-2.2-6.62h-11.77l-2.2,6.62h-1.94l-.4-.58ZM197.36,28.14h10.22l-4.64-13.86h-.94l-4.64,13.86Z"/>
    <path class="cls-1" d="M215.11,36.92V12.08h2.41v24.84h-2.41Z"/>
  </g>
</svg>