<?xml version="1.0" encoding="UTF-8"?>
<svg id="Layer_1" data-name="Layer 1" xmlns="http://www.w3.org/2000/svg" viewBox="0 0 38.88 38.88">
  <defs>
    <style>
      .cls-1 {
        fill: none;
        stroke: #000;
        stroke-miterlimit: 10;
        stroke-width: 3px;
      }
    </style>
  </defs>
  <path class="cls-1" d="M22.16,4.09l.55,3.22c.23,1.35,1.78,1.99,2.9,1.2l2.67-1.89c2.59-1.83,5.76,1.34,3.93,3.93l-1.89,2.67c-.79,1.11-.14,2.67,1.2,2.9l3.22.55c3.12.53,3.12,5.02,0,5.55l-3.22.55c-1.35.23-1.99,1.78-1.2,2.9l1.89,2.67c1.83,2.59-1.34,5.76-3.93,3.93l-2.67-1.89c-1.11-.79-2.67-.14-2.9,1.2l-.55,3.22c-.53,3.12-5.02,3.12-5.55,0l-.55-3.22c-.23-1.35-1.78-1.99-2.9-1.2l-2.67,1.89c-2.59,1.83-5.76-1.34-3.93-3.93l1.89-2.67c.79-1.11.14-2.67-1.2-2.9l-3.22-.55c-3.12-.53-3.12-5.02,0-5.55l3.22-.55c1.35-.23,1.99-1.78,1.2-2.9l-1.89-2.67c-1.83-2.59,1.34-5.76,3.93-3.93l2.67,1.89c1.11.79,2.67.14,2.9-1.2l.55-3.22c.53-3.12,5.02-3.12,5.55,0Z"/>
  <rect class="cls-1" x="15.46" y="15.51" width="7.84" height="7.84" rx="1.38" ry="1.38"/>
</svg>