<?xml version="1.0" encoding="UTF-8"?>
<svg id="Layer_1" data-name="Layer 1" xmlns="http://www.w3.org/2000/svg" viewBox="0 0 39 38.89">
  <defs>
    <style>
      .cls-1 {
        fill: none;
        stroke: #000;
        stroke-linecap: round;
        stroke-miterlimit: 10;
        stroke-width: 3px;
      }
    </style>
  </defs>
  <rect class="cls-1" x="2.36" y="2.36" width="15" height="15" rx="3.22" ry="3.22"/>
  <rect class="cls-1" x="2.36" y="21.53" width="15" height="15" rx="3.22" ry="3.22"/>
  <rect class="cls-1" x="21.64" y="2.36" width="15" height="15" rx="3.22" ry="3.22"/>
  <path d="M33.53,38.03h-8.79c-2.53,0-4.61-2.07-4.61-4.61v-8.79c0-2.53,2.07-4.61,4.61-4.61h8.79c2.53,0,4.61,2.07,4.61,4.61v8.79c0,2.53-2.07,4.61-4.61,4.61ZM28.36,34.17s.08-.07.11-.1c.03-.03.06-.06.08-.1-.06.07-.12.14-.19.2ZM34.91,23.9c-.64-.53-1.59-.44-2.11.2l-5.5,6.68-1.91-1.9c-.59-.59-1.54-.58-2.13,0-.58.59-.58,1.54.01,2.12l3.08,3.07s0,.01.02.02c.05.05.1.09.15.13.04.03.08.06.12.08.07.04.14.08.21.1.09.04.18.07.27.08.1.02.19.03.29.03.11,0,.22,0,.32-.04.1-.02.19-.05.28-.09.03-.01.07-.03.1-.05.06-.03.12-.07.18-.11.02-.02.05-.04.07-.05.07-.06.13-.13.19-.2h.01s.1-.14.1-.14l6.45-7.82c.53-.64.44-1.58-.2-2.11ZM26.45,34.17s.04.04.07.05c-.05-.04-.1-.08-.15-.13.02.03.05.05.08.08Z"/>
</svg>